<svg xmlns="http://www.w3.org/2000/svg" viewBox="0 0 1516 412" role="img" aria-label="Asociación Huella de Carbono">
  <title>Asociación Huella de Carbono</title>
  <text x="50" y="265"
        font-family="'Source Sans 3','Source Sans Pro',Arial,sans-serif"
        font-weight="800" font-size="280" letter-spacing="70" fill="#4F9447">A H C</text>
  <text x="50" y="355"
        font-family="'Source Sans 3','Source Sans Pro',Arial,sans-serif"
        font-weight="700" font-size="72" letter-spacing="6" fill="#4F9447">ASOCIACIÓN HUELLA DE CARBONO</text>
  <g transform="translate(1080, 30)">
    <path fill="#4F9447" d="M70,150 C30,150 0,120 0,80 C0,50 25,25 55,25 C65,5 90,0 110,10 C125,-5 155,-5 170,10 C190,-5 220,0 235,20 C260,15 290,35 290,70 C320,75 340,100 340,135 C340,170 310,200 270,200 L70,200 C30,200 10,180 10,150 Z"/>
    <text x="55" y="170"
          font-family="'Source Sans 3','Source Sans Pro',Arial,sans-serif"
          font-weight="800" font-size="100" fill="#FFFFFF">CO<tspan font-size="60" baseline-shift="-25%">2</tspan></text>
    <path fill="#4F9447" d="M310,190 L370,190 L370,260 L395,260 L340,330 L285,260 L310,260 Z"/>
  </g>
</svg>
